<svg xmlns="http://www.w3.org/2000/svg" viewBox="0 0 16 16" width="16" height="16"><path style="fill:#377ffc;" d="M13.71 8.57a.56.56 0 0 0-.56-.57.57.57 0 0 0-.57.55v5.15a1.15 1.15 0 0 1-1.15 1.14h-9.14a1.15 1.15 0 0 1-1.15-1.14v-9.13a1.15 1.15 0 0 1 1.15-1.14h5.14a.58.58 0 0 0 .57-.57.57.57 0 0 0-.57-.57h-5.14a2.29 2.29 0 0 0-2.29 2.28v9.15a2.3 2.3 0 0 0 2.29 2.28h9.14a2.3 2.3 0 0 0 2.29-2.29zM16 .3a.3.3 0 0 0-.31-.3h-5.82a.3.3 0 0 0-.22.51l2.11 2.11-6 6.05a1.14 1.14 0 0 0 0 1.62 1.13 1.13 0 0 0 1.61 0l6.05-6 2.11 2.11a.3.3 0 0 0 .47-.27z"/></svg>