<svg xmlns="http://www.w3.org/2000/svg" viewBox="0 0 19 23"><g><path style="fill:#6e421c;" d="M.27 20.8a.15.15 0 0 1 .09-.06.2.2 0 0 1 .11 0 .13.13 0 0 1 .07.08.12.12 0 0 1 0 .1 1 1 0 0 0-.22.63.28.28 0 0 0 0 .1.12.12 0 0 1 0 .09.14.14 0 0 1-.1.05.13.13 0 0 1-.22-.09.13.13 0 0 1 0-.06v-.06a1.27 1.27 0 0 1 .27-.78zm2.24-.32a1.5 1.5 0 0 1 .49.52 1.29 1.29 0 0 1 .16.61 1.27 1.27 0 0 1-.13.55 1.31 1.31 0 0 1-.33.44 1.48 1.48 0 0 1-.5.3 1.49 1.49 0 0 1-.6.11 1.7 1.7 0 0 1-.89-.24.1.1 0 0 1-.06-.09.15.15 0 0 1 0-.11.19.19 0 0 1 .1-.05.14.14 0 0 1 .11 0 1.31 1.31 0 0 0 .72.2 1.62 1.62 0 0 0 .49-.08 1.14 1.14 0 0 0 .39-.25 1 1 0 0 0 .25-.39 1 1 0 0 0 0-.93 1.12 1.12 0 0 0-.35-.4 1.32 1.32 0 0 0-.77-.24 1 1 0 0 1-.39-.07 1.08 1.08 0 0 1-.33-.2 1.05 1.05 0 0 1-.22-.3.85.85 0 0 1 0-.72 1.09 1.09 0 0 1 .23-.3 1.16 1.16 0 0 1 .32-.2 1.09 1.09 0 0 1 .4-.07 1.1 1.1 0 0 1 .41.07 1.08 1.08 0 0 1 .33.2 1.05 1.05 0 0 1 .22.3.74.74 0 0 1 .09.36.14.14 0 0 1 0 .1.21.21 0 0 1-.1 0 .18.18 0 0 1-.11 0 .14.14 0 0 1-.05-.1.53.53 0 0 0 0-.25.65.65 0 0 0-.16-.21 1 1 0 0 0-.24-.15.88.88 0 0 0-.29-.05.92.92 0 0 0-.28.05.76.76 0 0 0-.23.15.65.65 0 0 0-.16.21.54.54 0 0 0-.06.25.58.58 0 0 0 .06.26.65.65 0 0 0 .16.21.74.74 0 0 0 .23.14.92.92 0 0 0 .28.05 1.72 1.72 0 0 1 .81.32zM3.29 20a.26.26 0 0 1-.19-.12.29.29 0 0 1-.05-.22.35.35 0 0 1 .12-.19.29.29 0 0 1 .22 0 .25.25 0 0 1 .19.12.23.23 0 0 1 0 .21.21.21 0 0 1 0 .11l-.3.44h-.07a.06.06 0 0 1 0-.07l.17-.28a.14.14 0 0 1-.09 0zM3.68 20a.26.26 0 0 1-.19-.12.34.34 0 0 1-.05-.22.35.35 0 0 1 .12-.19.34.34 0 0 1 .22-.05.29.29 0 0 1 .19.13.23.23 0 0 1 0 .21.21.21 0 0 1 0 .11h.03l-.31.44h-.07a.06.06 0 0 1 0-.07l.15-.24a.14.14 0 0 1-.09 0z"/><path style="fill:#be8149;" d="M7.54 19.11a1.47 1.47 0 0 1 .48.33 1.51 1.51 0 0 1 .33.49 1.5 1.5 0 0 1 .12.6 1.45 1.45 0 0 1-.12.59 1.51 1.51 0 0 1-.33.49 1.47 1.47 0 0 1-.48.33 1.51 1.51 0 0 1-1.92-.65v1.59a.09.09 0 0 1 0 .07.11.11 0 0 1-.08 0 .1.1 0 0 1-.1-.1v-3a.1.1 0 0 1 .1-.1.11.11 0 0 1 .08 0 .09.09 0 0 1 0 .07v.66a1.22 1.22 0 0 0 .11.5 1.3 1.3 0 0 0 .28.41 1.62 1.62 0 0 0 .42.28 1.45 1.45 0 0 0 .51.1 1.27 1.27 0 0 0 .52-.11 1.19 1.19 0 0 0 .42-.28 1.3 1.3 0 0 0 .29-.38 1.25 1.25 0 0 0 .1-.51 1.27 1.27 0 0 0-.1-.52 1.42 1.42 0 0 0-.71-.71 1.27 1.27 0 0 0-.52-.1h-1.42a.09.09 0 0 1-.07 0 .1.1 0 0 1 0-.08.11.11 0 0 1 0-.07.09.09 0 0 1 .07 0h1.42a1.53 1.53 0 0 1 .6.1zM9.19 20.82h.06a.09.09 0 0 1 0 .07v2a.09.09 0 0 1 0 .06h-.12a.09.09 0 0 1 0-.06v-2a.09.09 0 0 1 0-.07zm1 0a.09.09 0 0 1 .06 0v.12a.09.09 0 0 1-.06 0 .89.89 0 0 0-.49.14.09.09 0 0 1-.08 0 .08.08 0 0 1 0-.07.1.1 0 0 1 0-.05 1.06 1.06 0 0 1 .57-.15zM11.62 20.81a1.17 1.17 0 0 1 .38.07 1.19 1.19 0 0 1 .33.19 1.37 1.37 0 0 1 .24.29 1.09 1.09 0 0 1 .12.36.06.06 0 0 1 0 .07.06.06 0 0 1-.06 0h-1.46a.07.07 0 0 1-.08-.08.08.08 0 0 1 0-.07h1.4100000000000001a1.11 1.11 0 0 0-.12-.27 1.34 1.34 0 0 0-.2-.21 1.05 1.05 0 0 0-.26-.13.94.94 0 0 0-.3-.05.92.92 0 0 0-.43.11.82.82 0 0 0-.33.31.79.79 0 0 0-.14.34v.07a.22.22 0 0 0 0 .08.94.94 0 0 0 .56.84 1 1 0 0 0 .35.07.91.91 0 0 0 .41-.09 1 1 0 0 0 .32-.27.77.77 0 0 0 .1-.18c0-.05.06-.06.12 0a.1.1 0 0 1 0 .05.09.09 0 0 1 0 .07.76.76 0 0 1-.12.2 1.05 1.05 0 0 1-.38.32 1 1 0 0 1-.49.11 1 1 0 0 1-.42-.08 1.2 1.2 0 0 1-.34-.23 1.21 1.21 0 0 1-.24-.35 1.16 1.16 0 0 1-.08-.42 1.09 1.09 0 0 1 0-.18 1.66 1.66 0 0 1 .06-.21.69.69 0 0 1 .1-.19 1.09 1.09 0 0 1 .39-.38 1.18 1.18 0 0 1 .56-.16zM13.38 21.87a.09.09 0 0 1 0 .06v.06a.52.52 0 0 0-.09.29.61.61 0 0 0 0 .15.08.08 0 0 1-.06.1.1.1 0 0 1-.09-.06v-.19a.69.69 0 0 1 .12-.39.08.08 0 0 1 .12-.02zm.89-.14a.91.91 0 0 1 .2.24.82.82 0 0 1 .07.31.67.67 0 0 1-.06.28.54.54 0 0 1-.15.22.71.71 0 0 1-.22.15.59.59 0 0 1-.27.05.7.7 0 0 1-.4-.12.08.08 0 0 1 0-.12h.12a.49.49 0 0 0 .3.09.65.65 0 0 0 .2 0 .66.66 0 0 0 .17-.12.36.36 0 0 0 .11-.16.5.5 0 0 0 0-.21.51.51 0 0 0-.21-.41.46.46 0 0 0-.32-.11.48.48 0 0 1-.47-.47.46.46 0 0 1 .14-.34.45.45 0 0 1 .33-.14.58.58 0 0 1 .19 0 .65.65 0 0 1 .15.1.4.4 0 0 1 .1.15.58.58 0 0 1 0 .19.09.09 0 0 1 0 .06.07.07 0 0 1-.06 0 .06.06 0 0 1-.06 0 .09.09 0 0 1 0-.06.28.28 0 0 0-.3-.3.32.32 0 0 0-.21.08.29.29 0 0 0-.09.22.31.31 0 0 0 .3.3.66.66 0 0 1 .44.12zM15.26 21.87v.06a.07.07 0 0 1 0 .06.6.6 0 0 0-.08.29.34.34 0 0 0 0 .15.08.08 0 0 1-.07.1.08.08 0 0 1-.08-.06.25.25 0 0 1 0-.07v-.12a.69.69 0 0 1 .12-.39.08.08 0 0 1 .11-.02zm.89-.14a.91.91 0 0 1 .2.24.82.82 0 0 1 .07.31.67.67 0 0 1-.06.28.64.64 0 0 1-.14.22.91.91 0 0 1-.23.15.59.59 0 0 1-.27.05.72.72 0 0 1-.4-.12.08.08 0 0 1 0-.12.08.08 0 0 1 .12 0 .53.53 0 0 0 .3.09.65.65 0 0 0 .2 0 .52.52 0 0 0 .17-.12.48.48 0 0 0 .12-.16.71.71 0 0 0 0-.21.51.51 0 0 0-.21-.41.46.46 0 0 0-.32-.11.48.48 0 0 1-.47-.47.46.46 0 0 1 .14-.34.45.45 0 0 1 .33-.14.58.58 0 0 1 .19 0 .49.49 0 0 1 .15.1.4.4 0 0 1 .1.15.41.41 0 0 1 0 .19.09.09 0 0 1 0 .06.08.08 0 0 1-.12 0 .09.09 0 0 1 0-.06.28.28 0 0 0-.3-.3.32.32 0 0 0-.21.08.33.33 0 0 0-.08.22.32.32 0 0 0 .08.21.29.29 0 0 0 .21.09.66.66 0 0 1 .43.12zM18 23a1.06 1.06 0 0 1-.43-.08 1.36 1.36 0 0 1-.34-.23 1 1 0 0 1-.23-.35 1 1 0 0 1-.09-.42 1 1 0 0 1 .14-.52.06.06 0 0 1 .05-.05h.07a.1.1 0 0 1 0 .05.09.09 0 0 1 0 .07.93.93 0 0 0-.11.44.81.81 0 0 0 .07.35.84.84 0 0 0 .2.29 1 1 0 0 0 .28.2 1 1 0 0 0 .36.07.91.91 0 0 0 .91-.91 1 1 0 0 0-.07-.36 1 1 0 0 0-.2-.28.84.84 0 0 0-.29-.2.81.81 0 0 0-.32-.07.93.93 0 0 0-.44.11h-.07a.1.1 0 0 1-.05 0 .08.08 0 0 1 0-.07.1.1 0 0 1 0-.05 1.1 1.1 0 0 1 .53-.14 1 1 0 0 1 .42.09 1.18 1.18 0 0 1 .35.23 1.25 1.25 0 0 1 .23.35 1.14 1.14 0 0 1 0 .84 1 1 0 0 1-.58.58 1 1 0 0 1-.39.06z"/><path style="fill:#fff;" d="M15.51 5.1a.76.76 0 0 0-.51-.33.73.73 0 0 0-.52.09.68.68 0 0 0-.44-.3.71.71 0 0 0-.55.09.74.74 0 0 0-.33.46.72.72 0 0 0 .1.55.7.7 0 0 0 .45.32.65.65 0 0 0 .29.02l-.48.62a.11.11 0 0 0 0 .17.12.12 0 0 0 .17 0l.63-.82a.72.72 0 0 0 .4.26.6.6 0 0 0 .23 0l-.47.62a.11.11 0 0 0 0 .17.12.12 0 0 0 .17 0l.81-1a.53.53 0 0 0 .12-.25.71.71 0 0 0-.07-.67z"/><path style="fill:#6e421c;" d="M4 10.1a.38.38 0 0 1 .47-.35.4.4 0 0 1 .27.16.38.38 0 0 1 .08.31 4.23 4.23 0 0 0 .33 2.49 2.15 2.15 0 0 0 .17.32.37.37 0 0 1-.17.54.4.4 0 0 1-.3 0 .36.36 0 0 1-.22-.2.59.59 0 0 1-.1-.17l-.09-.19a4.62 4.62 0 0 1-.44-1.42 5.31 5.31 0 0 1 0-1.49zm8.33-3.1a5.36 5.36 0 0 1 1.46 1.79 5.1 5.1 0 0 1 .52 2.26 4.83 4.83 0 0 1-.41 2 4.84 4.84 0 0 1-1.1 1.63 5.36 5.36 0 0 1-1.63 1.09 4.81 4.81 0 0 1-2 .41 5 5 0 0 1-2.91-.9.44.44 0 0 1-.17-.28.33.33 0 0 1 .08-.31.33.33 0 0 1 .25-.16.38.38 0 0 1 .3.07 4.23 4.23 0 0 0 2.45.76 4.38 4.38 0 0 0 1.68-.33 4.25 4.25 0 0 0 1.38-.93 4.61 4.61 0 0 0 .93-1.37 4.1 4.1 0 0 0 .34-1.68 4.23 4.23 0 0 0-.44-1.89 4.19 4.19 0 0 0-1.23-1.51 4.21 4.21 0 0 0-2.66-.93 3 3 0 0 1-1.3-.28 3.55 3.55 0 0 1-1.06-.72 3.35 3.35 0 0 1-.71-1.04 3.19 3.19 0 0 1-.27-1.3 3.23 3.23 0 0 1 .27-1.31 3.3 3.3 0 0 1 .72-1.07 3.42 3.42 0 0 1 1.09-.74 3.37 3.37 0 0 1 1.31-.26 3.44 3.44 0 0 1 1.31.26 3.49 3.49 0 0 1 1.08.74 3.3 3.3 0 0 1 .72 1.08 3.23 3.23 0 0 1 .26 1.31.39.39 0 0 1-.11.29.4.4 0 0 1-.29.12.41.41 0 0 1-.3-.12.43.43 0 0 1-.1-.29 2.46 2.46 0 0 0-.21-1 2.35 2.35 0 0 0-.58-.83 2.75 2.75 0 0 0-.8-.56 2.53 2.53 0 0 0-2 0 2.75 2.75 0 0 0-.82.55 2.35 2.35 0 0 0-.56.82 2.46 2.46 0 0 0-.21 1 2.38 2.38 0 0 0 .21 1 2.4 2.4 0 0 0 .56.81 2.75 2.75 0 0 0 .82.55 2.54 2.54 0 0 0 1 .2 5.24 5.24 0 0 1 3.13 1.07zM14.57 7.1a.19.19 0 0 1-.12 0 .19.19 0 0 1 0-.28l.39-.49h-.1a.73.73 0 0 1-.37-.21l-.58.74a.19.19 0 1 1-.3-.23l.38-.5h-.09a.74.74 0 0 1-.5-.36.77.77 0 0 1-.11-.61.8.8 0 0 1 1.41-.33.8.8 0 0 1 1 .3.82.82 0 0 1 .11.61.89.89 0 0 1-.12.26l-.8 1a.21.21 0 0 1-.2.1zm.56-1l-.59.77v.06h.06l.84-1.09a.61.61 0 0 0 .09-.2.62.62 0 0 0-.09-.49.66.66 0 0 0-.44-.3.58.58 0 0 0-.46.08l-.04.07v-.06a.66.66 0 0 0-.4-.27.66.66 0 0 0-.78.5.66.66 0 0 0 .08.49.67.67 0 0 0 .41.29.74.74 0 0 0 .21 0h.18l-.59.77v.06h.07l.68-.9.06.08a.59.59 0 0 0 .36.23.46.46 0 0 0 .2 0z"/><path style="fill:#be8149;" d="M5.23 10.91c0-2.22 7.88-2.22 7.88 0a3.94 3.94 0 1 1-7.88 0z"/><path style="fill:#6e421c;" d="M15.1 10.29a.37.37 0 0 0-.41.31.36.36 0 0 0 .31.4.9.9 0 1 1-.25 1.79.36.36 0 0 0-.1.71 1.62 1.62 0 0 0 .45-3.21z"/></g></svg>