<svg xmlns="http://www.w3.org/2000/svg" width="64" height="64" viewBox="0 0 64 64"><defs><style>.cls-1{fill:#cb0000;}.cls-2{fill:#fefefe;}.cls-3{fill:#fefdfd;}.cls-4{fill:#fefcfc;}.cls-5{fill:#fdf7f7;}</style></defs><g><path class="cls-1" d="M30 0h4c.84.12 1.69.11 2.53.17a23.26 23.26 0 0 1 6.65 1.6 31.87 31.87 0 0 1 16.82 14.23 29.26 29.26 0 0 1 3.8 10.64 19.77 19.77 0 0 1 .19 3.17c0 .12 0 .25.06.35v3.75c-.13.89-.1 1.78-.16 2.66a23.7 23.7 0 0 1-1.61 6.65 31.91 31.91 0 0 1-14.28 16.78 29.26 29.26 0 0 1-10.64 3.8 19.77 19.77 0 0 1-3.17.19c-.12 0-.25 0-.35.06h-3.72c-.88-.13-1.77-.1-2.65-.16a24 24 0 0 1-6.59-1.59 31.23 31.23 0 0 1-9.88-5.87 31.77 31.77 0 0 1-10.75-19.03 17.13 17.13 0 0 1-.19-3c0-.12 0-.25-.06-.36v-4.04c.12-.84.11-1.69.17-2.53a23 23 0 0 1 1.56-6.54 31.9 31.9 0 0 1 14.34-16.93 29.25 29.25 0 0 1 10.53-3.75 19.25 19.25 0 0 1 3-.19c.16 0 .29.04.4-.06z"/><path class="cls-2" d="M35.76 50.38h-18.720000000000002c-.69 0-.78-.26-.8-.81a38.4 38.4 0 0 1 1.27-10.57 51.73 51.73 0 0 1 8.38-18.09 17.85 17.85 0 0 1 11.28-7.24 15.23 15.23 0 0 1 10.25 1.7 22.17 22.17 0 0 1 4.1 2.83c.37.32.49.54.15 1-.54.71-.5.73-1.21.21a8 8 0 0 0-8.24-.75 15.11 15.11 0 0 0-9.45 12.05c-.81 4.75-.06 9.41 1.17 14a46.15 46.15 0 0 0 1.7 5.14.84.84 0 0 1 .12.53zM13.48 40.62l2.36.17c.25 0 .44 0 .36.4-.2 1-.39 2-.54 3.06-.05.35-.19.39-.48.36-.95-.13-1.9-.25-2.85-.35-.29 0-.35-.14-.31-.4.13-1 .25-2 .37-3 0-.27.14-.37.4-.32s.46 0 .69.06zM19.41 29.8l-.9 2.48c-.08.23-.24.13-.36.09l-2.85-.9c-.29-.08-.26-.23-.18-.45.29-.78.58-1.56.84-2.35.09-.26.18-.39.48-.27.9.37 1.81.73 2.72 1.08.14.06.29.08.25.32z"/><path class="cls-3" d="M34.4 44.13h2.91c.18 0 .32 0 .4.21.42.87.85 1.73 1.3 2.67l-3.61-.22a.34.34 0 0 1-.35-.28c-.21-.77-.43-1.51-.65-2.38z"/><path class="cls-2" d="M22.66 18.63l.18.1 2.16 1.4c.24.15.16.27 0 .43-.53.61-1 1.23-1.56 1.85a.29.29 0 0 1-.46.07c-.7-.48-1.41-1-2.12-1.42-.21-.14-.22-.24 0-.43.55-.59 1.09-1.19 1.63-1.79z"/><path class="cls-3" d="M32.54 14.19a.17.17 0 0 1-.13.2l-.22.13c-.67.35-1.37 1.16-2 1l-1.52-1.66c-.2-.23-.23-.37.09-.48l.28-.14c.61-.28 1.26-1 1.8-.8s1 1 1.54 1.58zM33.51 35.05l2.55 1.33a.47.47 0 0 1 .25.46c0 .66.07 1.32.12 2.08l-2.89-1.24c-.24-.1-.17-.31-.16-.48.03-.68.08-1.36.13-2.15zM34.53 28.37c.63.48 1.2.93 1.79 1.34a.54.54 0 0 1 .26.68c-.18.63-.33 1.28-.51 2l-2.34-2c-.18-.16-.07-.29 0-.44zM38.92 13.24c-1.44 0-1.44 0-1.74-1.38-.16-.75-.16-.75.62-.72s1.32.09 2 .1c.31 0 .45.11.46.42 0 .49.39 1.12.1 1.41s-.95.13-1.44.17zM38.05 26l-1.94-2.14c-.16-.17-.11-.28 0-.41.44-.37.86-.76 1.33-1.18.44.67.85 1.32 1.29 1.94a.44.44 0 0 1 0 .56c-.21.39-.43.79-.68 1.23z"/><path class="cls-4" d="M41.43 21.74c-.27-.49-.52-1-.79-1.43-.17-.28 0-.36.19-.42.39-.08.77-.2 1.15-.26.2 0 .51-.31.58 0s.49.8 0 1.19-.73.62-1.13.92zM47.25 13.41c.79.58 1.48 1.1 2.19 1.59.24.18.11.31 0 .45s-.17.41-.46.25l-1.64-.88c-.23-.11-.19-.3-.17-.48l.08-.93z"/><path class="cls-5" d="M48.75 19.9c.09.42-.07.5-.43.43a9 9 0 0 0-1.16-.14c-.27 0-.38-.12-.39-.42 0-.73 0-.74.69-.57l.91.19c.31.06.51.18.38.51z"/></g></svg>