<svg xmlns="http://www.w3.org/2000/svg" viewBox="0 0 280 65" width="280" height="65"><g><path style="fill:#fff8ea;" d="M7.37 31.93a2.74 2.74 0 0 0-1.87-.36 2.42 2.42 0 0 0-1.5.91 19.44 19.44 0 0 0-4 11.63v.89a4.32 4.32 0 0 0 .1.88 2.22 2.22 0 0 0 2.5 2.06h.15a2.85 2.85 0 0 0 1.75-.8 1.9 1.9 0 0 0 .6-1.64 6.65 6.65 0 0 1-.1-1.39 14.66 14.66 0 0 1 3.11-9 2.07 2.07 0 0 0 .36-1.76 2.43 2.43 0 0 0-1.1-1.42zM43.88 35a22.68 22.68 0 0 0-6.6-7.29 25.46 25.46 0 0 0-13.94-4.41h-.12a11.23 11.23 0 0 1-4-.73 11.08 11.08 0 0 1-3.33-2 8.74 8.74 0 0 1-2.24-3 8.48 8.48 0 0 1-.82-3.66 8.07 8.07 0 0 1 .82-3.61 9.51 9.51 0 0 1 2.24-3 10.86 10.86 0 0 1 3.33-2 11.72 11.72 0 0 1 8.15 0 10.72 10.72 0 0 1 3.38 2 9.7 9.7 0 0 1 2.25 3 8.06 8.06 0 0 1 .81 3.61 2.15 2.15 0 0 0 .73 1.64 2.69 2.69 0 0 0 3.47 0 2 2 0 0 0 .8-1.65 12 12 0 0 0-1.24-5.43 14.47 14.47 0 0 0-3.33-4.4 16.06 16.06 0 0 0-4.92-3 16.4 16.4 0 0 0-6.11-1.07 16.22 16.22 0 0 0-10.86 4.09 14.28 14.28 0 0 0-3.35 4.4 11.87 11.87 0 0 0-1.24 5.43 12.46 12.46 0 0 0 1.24 5.42 13.82 13.82 0 0 0 3.27 4.41 16.31 16.31 0 0 0 4.88 3 15.9 15.9 0 0 0 5.85 1.09h.1a19 19 0 0 1 11.08 3.45 18 18 0 0 1 5.19 5.71 14.45 14.45 0 0 1 .41 13.4 17.19 17.19 0 0 1-3.88 5.22 17.84 17.84 0 0 1-5.73 3.49 20.17 20.17 0 0 1-17.42-1.61 2.54 2.54 0 0 0-1.83-.37 2.48 2.48 0 0 0-1.62.92 2.24 2.24 0 0 0 .61 3.26 25 25 0 0 0 13.2 3.69 24.7 24.7 0 0 0 9-1.63 23.56 23.56 0 0 0 7.35-4.46 21.13 21.13 0 0 0 5-6.62 19.07 19.07 0 0 0-.58-17.29zM58.75 14.7a4.53 4.53 0 0 0-3-1.9 4.42 4.42 0 0 0-3 .54 4.59 4.59 0 0 0-7.25 5.6 4.47 4.47 0 0 0 3.77 1.95l-2.27 3.26a.93.93 0 0 0 .23 1.39 1.15 1.15 0 0 0 .58.18 1 1 0 0 0 .79-.45l3.22-4.63a4.4 4.4 0 0 0 2.37 1.19 3.73 3.73 0 0 0 .81.06l-2.3 3.27a.92.92 0 0 0 .23 1.38 1.15 1.15 0 0 0 .58.18 1 1 0 0 0 .79-.44l4.41-6.36a.37.37 0 0 0 .16-.23 3.77 3.77 0 0 0 .64-1.58 4.4 4.4 0 0 0-.76-3.41zM118.05 12.58a23.24 23.24 0 0 0-7.22-4.88 22.46 22.46 0 0 0-8.83-1.78h-20.81a1.65 1.65 0 0 0-1.3.53 1.8 1.8 0 0 0-.46 1.22 2 2 0 0 0 .46 1.33 1.63 1.63 0 0 0 1.3.53h20.81a19.33 19.33 0 0 1 7.5 1.48 18.76 18.76 0 0 1 6.1 4.11 20.38 20.38 0 0 1 4.1 6.1 18.27 18.27 0 0 1 1.53 7.44 18.61 18.61 0 0 1-1.53 7.49 20.32 20.32 0 0 1-4.1 6.14 18.6 18.6 0 0 1-6.1 4.11 19.33 19.33 0 0 1-7.5 1.48 18.65 18.65 0 0 1-7.31-1.44 19.1 19.1 0 0 1-6.06-4 18.78 18.78 0 0 1-4.15-5.93 18.49 18.49 0 0 1-1.61-7.27v-9.62a1.67 1.67 0 0 0-.52-1.23 1.71 1.71 0 0 0-1.35-.52 1.67 1.67 0 0 0-1.24.52 1.69 1.69 0 0 0-.51 1.23v43.57a1.76 1.76 0 0 0 1.75 1.81 1.75 1.75 0 0 0 1.32-.52 1.69 1.69 0 0 0 .52-1.24v-22.3a23.1 23.1 0 0 0 7.59 7.38 21.93 21.93 0 0 0 11.57 3.13 22.46 22.46 0 0 0 8.85-1.78 23.24 23.24 0 0 0 7.22-4.88 22.82 22.82 0 0 0 4.87-7.27 22.26 22.26 0 0 0 1.79-8.88 22 22 0 0 0-1.79-8.84 23 23 0 0 0-4.89-7.22zM149.5 32.57a15.91 15.91 0 0 0-8.6 2.43 1.64 1.64 0 0 0-.69 1 1.55 1.55 0 0 0 .18 1.26 1.66 1.66 0 0 0 1.38.7 1.57 1.57 0 0 0 .8-.26 13.22 13.22 0 0 1 6.93-2 1.54 1.54 0 0 0 1.6-1.59 1.58 1.58 0 0 0-.45-1.13 1.55 1.55 0 0 0-1.15-.41zM134.89 32.63a1.52 1.52 0 0 0-1.57 1.59v29.15a1.54 1.54 0 0 0 .44 1.13 1.51 1.51 0 0 0 1.13.45 1.51 1.51 0 0 0 1.58-1.58v-29.15a1.51 1.51 0 0 0-1.58-1.59zM184.64 40.69a16.65 16.65 0 0 0-3.58-4.3 16.31 16.31 0 0 0-4.8-2.8 15.91 15.91 0 0 0-5.7-1 16.13 16.13 0 0 0-7.77 2 15.88 15.88 0 0 0-5.86 5.54 13.24 13.24 0 0 0-1.51 2.87 19.68 19.68 0 0 0-.83 3.17 16.54 16.54 0 0 0-.22 2.62 15.82 15.82 0 0 0 1.28 6.31 16.22 16.22 0 0 0 8.6 8.61 16.3 16.3 0 0 0 13.54-.4 16.37 16.37 0 0 0 5.68-4.74 15.3 15.3 0 0 0 1.84-3.08 1.66 1.66 0 0 0 0-1.2 1.49 1.49 0 0 0-.83-.89 1.4 1.4 0 0 0-2 .78 12.8 12.8 0 0 1-1.55 2.53 12.4 12.4 0 0 1-4.51 3.79 13.19 13.19 0 0 1-5.86 1.33 12.65 12.65 0 0 1-5.07-1 13.18 13.18 0 0 1-6.94-6.94 12.57 12.57 0 0 1-1-5.08v-1.19c0-.27 0-.56.09-.86a11.85 11.85 0 0 1 1.9-4.9 12.68 12.68 0 0 1 4.73-4.45 13 13 0 0 1 6.26-1.57 12.71 12.71 0 0 1 4.27.7 12.74 12.74 0 0 1 6.52 4.94 11.89 11.89 0 0 1 1.68 3.33h-19a1.55 1.55 0 0 0-1.13.44 1.53 1.53 0 0 0-.45 1.14 1.46 1.46 0 0 0 .45 1.13 1.51 1.51 0 0 0 1.13.48h21.26a1.86 1.86 0 0 0 1.07-.64 1.37 1.37 0 0 0 .24-1.19 15.53 15.53 0 0 0-1.93-5.48zM209.48 46.09a10.19 10.19 0 0 0-6.4-2.21 4.09 4.09 0 0 1-2.88-7 4 4 0 0 1 2.88-1.16 4 4 0 0 1 4.08 4.07 1.49 1.49 0 0 0 .44 1.13 1.51 1.51 0 0 0 1.13.45 1.53 1.53 0 0 0 1.14-.44 1.54 1.54 0 0 0 .44-1.14 7.35 7.35 0 0 0-.55-2.83 6.9 6.9 0 0 0-1.57-2.32 7.75 7.75 0 0 0-2.31-1.53 7 7 0 0 0-2.8-.55 6.9 6.9 0 0 0-5.08 2.09 7.33 7.33 0 0 0 0 10.22 6.82 6.82 0 0 0 5 2.1 7.36 7.36 0 0 1 5.24 12.64 8.05 8.05 0 0 1-2.39 1.59 7.06 7.06 0 0 1-2.85.59 7 7 0 0 1-4.22-1.32 1.58 1.58 0 0 0-1.78 2.64 10.54 10.54 0 0 0 6 1.89 10.42 10.42 0 0 0 9.72-6.41 10.49 10.49 0 0 0 .81-4.13 10.6 10.6 0 0 0-1.07-4.68 10.28 10.28 0 0 0-2.98-3.69zM195.63 54.41a7.3 7.3 0 0 1 1.25-4.13 1.54 1.54 0 0 0 .22-1.16 1.76 1.76 0 0 0-.65-1 1.49 1.49 0 0 0-2.18.44 10.37 10.37 0 0 0-1.78 5.89v1l.08.06a6 6 0 0 0 .07.85 7.82 7.82 0 0 0 .24 1 1.52 1.52 0 0 0 1.48 1.12.87.87 0 0 0 .49-.1 1.53 1.53 0 0 0 1.07-1.93 6.47 6.47 0 0 1-.29-2.04zM237.05 46.09a10.19 10.19 0 0 0-6.4-2.21 4.09 4.09 0 0 1-2.88-7 4 4 0 0 1 2.88-1.16 4 4 0 0 1 4.08 4.07 1.49 1.49 0 0 0 .44 1.13 1.51 1.51 0 0 0 1.13.45 1.53 1.53 0 0 0 1.14-.44 1.54 1.54 0 0 0 .44-1.14 7.35 7.35 0 0 0-.55-2.83 7 7 0 0 0-1.57-2.32 7.75 7.75 0 0 0-2.31-1.53 7 7 0 0 0-2.8-.55 6.9 6.9 0 0 0-5.07 2.08 7.33 7.33 0 0 0-.05 10.22 6.82 6.82 0 0 0 5.05 2.1 7.4 7.4 0 0 1 6.86 10.3 7.54 7.54 0 0 1-1.62 2.34 7.79 7.79 0 0 1-2.4 1.59 7.3 7.3 0 0 1-7.06-.73 1.58 1.58 0 1 0-1.75 2.64 10.51 10.51 0 0 0 6 1.84 10.42 10.42 0 0 0 9.72-6.41 10.85 10.85 0 0 0-.26-8.81 10.28 10.28 0 0 0-3.02-3.63zM223.2 54.41a7.3 7.3 0 0 1 1.25-4.13 1.49 1.49 0 0 0 .21-1.16 1.74 1.74 0 0 0-.64-1 1.49 1.49 0 0 0-2.18.44 10.39 10.39 0 0 0-1.84 5.85v1l.08.07a6.22 6.22 0 0 0 .07.85 7.07 7.07 0 0 0 .24 1 1.51 1.51 0 0 0 1.48 1.12.87.87 0 0 0 .49-.1 1.53 1.53 0 0 0 1.07-1.93 6.47 6.47 0 0 1-.23-2.01zM278.72 42.44a16.22 16.22 0 0 0-8.61-8.6 15.74 15.74 0 0 0-6.31-1.27 16.25 16.25 0 0 0-7.89 2 1.61 1.61 0 0 0-.69 1 1.54 1.54 0 0 0 .1 1.17 1.65 1.65 0 0 0 .95.78 1.59 1.59 0 0 0 1.23-.18 12.77 12.77 0 0 1 6.3-1.6 12.59 12.59 0 0 1 5.08 1 13.23 13.23 0 0 1 4.13 2.8 13.45 13.45 0 0 1 2.81 4.13 12.94 12.94 0 0 1 1 5.08 12.8 12.8 0 0 1-1 5.08 13.21 13.21 0 0 1-6.93 6.94 12.51 12.51 0 0 1-5.09 1 12.65 12.65 0 0 1-5.07-1 13.18 13.18 0 0 1-6.94-6.94 12.56 12.56 0 0 1-1-5.08 12.73 12.73 0 0 1 1.61-6.3 1.52 1.52 0 0 0 .17-1.23 1.31 1.31 0 0 0-.78-.88 1.54 1.54 0 0 0-1.23-.17 1.31 1.31 0 0 0-.89.78 16 16 0 0 0-.76 14.11 16.22 16.22 0 0 0 8.6 8.61 16.19 16.19 0 0 0 12.62 0 16.19 16.19 0 0 0 8.61-8.61 16.19 16.19 0 0 0 0-12.62z"/></g></svg>