<svg xmlns="http://www.w3.org/2000/svg" viewBox="0 0 30 30" width="30" height="30"><g><circle style="fill: #fff8ea;" cx="15" cy="15" r="15"/><path style="fill: #fff;" d="M23 11.24a.9.9 0 0 0-1.23-.3.88.88 0 0 0-.56-.38.84.84 0 0 0-.69.12.91.91 0 0 0-.41.57.92.92 0 0 0 .12.69.9.9 0 0 0 .58.41.93.93 0 0 0 .29 0l-.6.78a.13.13 0 0 0 0 .21.15.15 0 0 0 .21 0l.79-1a.91.91 0 0 0 .5.33.94.94 0 0 0 .29 0l-.6.78a.14.14 0 0 0 0 .21.15.15 0 0 0 .21 0l1-1.33a.75.75 0 0 0 .15-.31.88.88 0 0 0-.05-.78z"/><path style="fill: #6e421c;" d="M8.59 17.51a.47.47 0 0 1 .59-.43.52.52 0 0 1 .34.2.53.53 0 0 1 .09.39 5.38 5.38 0 0 0 .39 3.13 2.06 2.06 0 0 0 .22.39.49.49 0 0 1-.22.69.53.53 0 0 1-.39 0 .42.42 0 0 1-.27-.25.63.63 0 0 1-.13-.2l-.11-.25a6.42 6.42 0 0 1-.53-1.83 6.57 6.57 0 0 1 .02-1.84zm10.41-3.86a6.49 6.49 0 0 1 1.82 2.25 6.24 6.24 0 0 1 .66 2.84 6.16 6.16 0 0 1-.48 2.49 6.33 6.33 0 0 1-1.38 2.05 6.85 6.85 0 0 1-2.05 1.38 6.42 6.42 0 0 1-6.19-.66.52.52 0 0 1-.23-.33.57.57 0 0 1 .42-.6.49.49 0 0 1 .37.09 5.45 5.45 0 0 0 6.93-.62 5.92 5.92 0 0 0 1.13-1.69 5.11 5.11 0 0 0 .44-2.11 5.3 5.3 0 0 0-.56-2.38 5.46 5.46 0 0 0-1.54-1.9 5.27 5.27 0 0 0-3.34-1.16 3.87 3.87 0 0 1-1.6-.3 4.47 4.47 0 0 1-1.34-1 4.37 4.37 0 0 1-.89-1.33 4.06 4.06 0 0 1-.33-1.63 4.26 4.26 0 0 1 1.24-3 4.25 4.25 0 0 1 1.36-.92 4.27 4.27 0 0 1 3.29 0 4.25 4.25 0 0 1 1.36.92 4.26 4.26 0 0 1 1.24 3 .51.51 0 0 1-.51.51.47.47 0 0 1-.37-.15.52.52 0 0 1-.14-.36 3.18 3.18 0 0 0-.25-1.26 3.35 3.35 0 0 0-.7-1 3.79 3.79 0 0 0-1-.69 3.23 3.23 0 0 0-2.49 0 3.65 3.65 0 0 0-1 .69 3.18 3.18 0 0 0-1 2.29 3.05 3.05 0 0 0 .25 1.24 3.15 3.15 0 0 0 .7 1 3.45 3.45 0 0 0 1 .69 3.09 3.09 0 0 0 1.24.25 6.65 6.65 0 0 1 3.94 1.4zM21.81 13.75a.3.3 0 0 1-.15-.05.24.24 0 0 1-.05-.35l.48-.62h-.11a1 1 0 0 1-.48-.27l-.71.94a.25.25 0 0 1-.35 0 .24.24 0 0 1 0-.35l.48-.62h-.12a1 1 0 0 1-.63-.45 1 1 0 0 1 .32-1.39 1 1 0 0 1 .76-.14 1 1 0 0 1 .56.35 1 1 0 0 1 1.3.38 1 1 0 0 1 .13.76.84.84 0 0 1-.15.33l-1 1.3a.24.24 0 0 1-.28.18zm.7-1.24l-.74 1v.08h.08l1-1.37a.71.71 0 0 0 .11-.25.76.76 0 0 0-.11-.62.8.8 0 0 0-.52-.37.82.82 0 0 0-.59.1l-.07.05v-.08a.83.83 0 0 0-.5-.34.82.82 0 0 0-1 .62.77.77 0 0 0 .11.62.79.79 0 0 0 .51.36.57.57 0 0 0 .26 0h.23l-.74 1v.07a.05.05 0 0 0 .08 0l.86-1.13.07.1a.75.75 0 0 0 .45.29.76.76 0 0 0 .26 0z"/><path style="fill: #be8149;" d="M10.08 18.54c0-2.79 9.89-2.79 9.89 0a4.95 4.95 0 1 1-9.89 0z"/><path style="fill: #6e421c;" d="M22.47 17.76a.45.45 0 0 0-.5.38.44.44 0 0 0 .38.51 1.14 1.14 0 0 1-.35 2.25.45.45 0 1 0-.13.89 2 2 0 1 0 .56-4z"/></g></svg>