<svg xmlns="http://www.w3.org/2000/svg" viewBox="0 0 140 42" width="140" height="42"><g><circle style="fill:#fff8ea;" cx="21" cy="21" r="21"/><path style="fill:#fff;" d="M32.18 15.73a1.27 1.27 0 0 0-.82-.57 1.29 1.29 0 0 0-.92.15 1.25 1.25 0 0 0-.78-.53 1.21 1.21 0 0 0-1 .17 1.26 1.26 0 0 0-.57.8 1.24 1.24 0 0 0 .17 1 1.21 1.21 0 0 0 .8.56 1.13 1.13 0 0 0 .41 0l-.84 1.09c-.08.12-.08.21 0 .3a.21.21 0 0 0 .3 0l1.11-1.44a1.29 1.29 0 0 0 .7.46 1.4 1.4 0 0 0 .41 0l-.84 1.08a.19.19 0 0 0 0 .3.21.21 0 0 0 .3 0l1.43-1.86a1.06 1.06 0 0 0 .21-.44 1.24 1.24 0 0 0-.07-1.07z"/><path style="fill:#6e421c;" d="M12 24.52a.66.66 0 0 1 .83-.61.74.74 0 0 1 .61.82 7.61 7.61 0 0 0 .56 4.39 4 4 0 0 0 .3.55.67.67 0 0 1-.29 1 .73.73 0 0 1-.54 0 .67.67 0 0 1-.39-.35 1.05 1.05 0 0 1-.17-.29l-.16-.34a9.07 9.07 0 0 1-.75-2.54 9.26 9.26 0 0 1 0-2.63zm14.58-5.4a9.12 9.12 0 0 1 2.55 3.14 8.91 8.91 0 0 1 .21 7.47 8.93 8.93 0 0 1-1.94 2.87 9.27 9.27 0 0 1-2.87 1.92 8.62 8.62 0 0 1-3.52.71 8.75 8.75 0 0 1-5.1-1.59.68.68 0 0 1-.31-.46.58.58 0 0 1 .14-.54.6.6 0 0 1 .44-.29.7.7 0 0 1 .52.12 7.63 7.63 0 0 0 7.26.75 7.17 7.17 0 0 0 2.43-1.63 8.17 8.17 0 0 0 1.64-2.41 7.2 7.2 0 0 0 .6-2.95 7.53 7.53 0 0 0-.77-3.33 7.7 7.7 0 0 0-2.16-2.65 7.41 7.41 0 0 0-4.7-1.63 5.49 5.49 0 0 1-2.28-.49 6.2 6.2 0 0 1-1.86-1.27 5.84 5.84 0 0 1-1.22-1.86 5.64 5.64 0 0 1-.47-2.28 5.94 5.94 0 0 1 3.65-5.48 6 6 0 0 1 4.6 0 5.94 5.94 0 0 1 1.91 1.28 5.95 5.95 0 0 1 1.73 4.2.72.72 0 0 1-.71.71.66.66 0 0 1-.52-.21.69.69 0 0 1-.19-.5 4.43 4.43 0 0 0-.36-1.72 4.33 4.33 0 0 0-1-1.44 4.84 4.84 0 0 0-1.44-1 4.3 4.3 0 0 0-1.74-.36 4.24 4.24 0 0 0-1.74.36 4.84 4.84 0 0 0-1.44 1 4.51 4.51 0 0 0-.92 1.44 4.42 4.42 0 0 0-.35 1.76 4.23 4.23 0 0 0 .35 1.69 4.43 4.43 0 0 0 1 1.42 4.87 4.87 0 0 0 1.44 1 4.4 4.4 0 0 0 1.74.35 9.31 9.31 0 0 1 5.42 1.9zM30.53 19.25a.35.35 0 0 1-.21-.07.33.33 0 0 1-.06-.49l.67-.87h-.16a1.33 1.33 0 0 1-.67-.38l-1 1.31a.34.34 0 0 1-.48.07.33.33 0 0 1-.06-.49l.67-.87a.45.45 0 0 1-.16 0 1.33 1.33 0 0 1-.88-.62 1.36 1.36 0 0 1-.19-1.12 1.32 1.32 0 0 1 .63-.88 1.4 1.4 0 0 1 1.85.3 1.37 1.37 0 0 1 .91-.11 1.4 1.4 0 0 1 .9.63 1.39 1.39 0 0 1 .19 1.07 1.19 1.19 0 0 1-.21.47v.06l-1.4 1.83a.36.36 0 0 1-.34.16zm1-1.74l-1 1.35v.1h.11l1.43-1.96a1 1 0 0 0 .15-.35 1.08 1.08 0 0 0-.16-.87 1.11 1.11 0 0 0-.73-.51 1.09 1.09 0 0 0-.82.14l-.11.06-.07-.1a1.14 1.14 0 0 0-1.56-.33 1.13 1.13 0 0 0-.51.72 1.15 1.15 0 0 0 .87 1.37.89.89 0 0 0 .36 0h.33l-1 1.34v.11h.11l1.17-1.58.1.13a1.11 1.11 0 0 0 .63.41.88.88 0 0 0 .36 0z"/><path style="fill:#be8149;" d="M14.11 26c0-3.91 13.85-3.91 13.85 0a6.93 6.93 0 1 1-13.85 0z"/><path style="fill:#6e421c;" d="M31.46 24.86a.64.64 0 0 0-.71.54.63.63 0 0 0 .54.71 1.59 1.59 0 0 1-.44 3.15.63.63 0 1 0-.17 1.24 2.85 2.85 0 0 0 .78-5.64z"/><path style="fill:#be8149;" d="M56.77 22.83a.78.78 0 0 0 .14-.67 1 1 0 0 0-.41-.53 1 1 0 0 0-.68-.13.9.9 0 0 0-.57.34 6.08 6.08 0 0 0-1.25 3.66v.26a1.29 1.29 0 0 0 0 .29.83.83 0 0 0 .92.77h.08a1.06 1.06 0 0 0 .63-.29.76.76 0 0 0 .23-.65 1.85 1.85 0 0 1 0-.38 4.37 4.37 0 0 1 .91-2.67zM65.67 20.34a8.07 8.07 0 0 0-4.4-1.34 3.25 3.25 0 0 1-1.18-.21 3.13 3.13 0 0 1-1-.58 2.48 2.48 0 0 1-.65-.86 2.37 2.37 0 0 1-.23-1 2.32 2.32 0 0 1 .23-1 2.68 2.68 0 0 1 .65-.86 3 3 0 0 1 1-.59 3.42 3.42 0 0 1 2.38 0 3.09 3.09 0 0 1 1 .59 2.61 2.61 0 0 1 .65.87 2.26 2.26 0 0 1 .24 1 .81.81 0 0 0 .27.62 1 1 0 0 0 1.27 0 .78.78 0 0 0 .3-.63 3.88 3.88 0 0 0-.39-1.73 4.67 4.67 0 0 0-1.06-1.4 4.91 4.91 0 0 0-1.55-.94 5.4 5.4 0 0 0-3.8 0 5 5 0 0 0-1.54.94 4.48 4.48 0 0 0-1.05 1.4 3.76 3.76 0 0 0-.4 1.73 4.16 4.16 0 0 0 .35 1.65 4.69 4.69 0 0 0 1 1.4 5.35 5.35 0 0 0 1.54.94 5.1 5.1 0 0 0 1.9.35 5.62 5.62 0 0 1 3.29 1 5.3 5.3 0 0 1 1.54 1.71 4.24 4.24 0 0 1 .12 3.95 5 5 0 0 1-1.15 1.56 5.13 5.13 0 0 1-1.7 1 6 6 0 0 1-5.19-.48 1 1 0 0 0-.67-.14 1 1 0 0 0-.6.35.82.82 0 0 0-.15.67.88.88 0 0 0 .39.56 7.8 7.8 0 0 0 4.16 1.13 7.61 7.61 0 0 0 2.8-.51 7.11 7.11 0 0 0 2.3-1.39 6.65 6.65 0 0 0 1.56-2.08 6 6 0 0 0-.17-5.42 7.1 7.1 0 0 0-2.06-2.26zM72.27 16.41a1.56 1.56 0 0 0-2-.52 1.65 1.65 0 0 0-.81-.44 1.53 1.53 0 0 0-1.17.27 1.47 1.47 0 0 0-.64 1 1.49 1.49 0 0 0 .35 1.17 1.53 1.53 0 0 0 1 .64l-.55.77a.45.45 0 0 0 .13.65.49.49 0 0 0 .25.08.47.47 0 0 0 .38-.21l.89-1.28a1.62 1.62 0 0 0 .65.3l-.54.77a.44.44 0 0 0 .12.65.52.52 0 0 0 .26.08.45.45 0 0 0 .37-.21l1.34-1.92.08-.08v-.05a1.27 1.27 0 0 0 .2-.51 1.46 1.46 0 0 0-.31-1.16z"/><path style="fill:#fff8ea;" d="M90.4 15.74a7.22 7.22 0 0 0-2.26-1.53 7 7 0 0 0-2.77-.56h-6.37a.66.66 0 0 0-.52.22.7.7 0 0 0-.18.48.73.73 0 0 0 .18.5.65.65 0 0 0 .52.22h6.36a5.8 5.8 0 0 1 2.23.44 5.65 5.65 0 0 1 1.82 1.22 6.18 6.18 0 0 1 1.22 1.82 5.42 5.42 0 0 1 .45 2.21 5.55 5.55 0 0 1-.44 2.24 6 6 0 0 1-1.22 1.83 5.55 5.55 0 0 1-1.82 1.17 5.85 5.85 0 0 1-4.41 0 5.81 5.81 0 0 1-3-2.95 5.4 5.4 0 0 1-.51-2.05v-3a.65.65 0 0 0-.21-.48.73.73 0 0 0-1 0 .71.71 0 0 0-.2.49v13.33a.71.71 0 0 0 .2.49.7.7 0 0 0 .53.17.72.72 0 0 0 .52-.2.69.69 0 0 0 .21-.49v-6.31a7.09 7.09 0 0 0 2.08 1.88 7.14 7.14 0 0 0 6.38.42 7.19 7.19 0 0 0 2.26-1.52 7.12 7.12 0 0 0 1.52-2.28 6.81 6.81 0 0 0 .56-2.78 6.91 6.91 0 0 0-.61-2.72 7 7 0 0 0-1.52-2.26zM99.91 21.81a5 5 0 0 0-2.72.78.67.67 0 0 0-.28.38.64.64 0 0 0 .08.53.68.68 0 0 0 .56.27.6.6 0 0 0 .32-.1 3.88 3.88 0 0 1 2-.58.63.63 0 0 0 .46-.18.66.66 0 0 0 .19-.46.64.64 0 0 0-.19-.46.6.6 0 0 0-.42-.18zM95 22a.62.62 0 0 0-.18.46v8.92a.62.62 0 0 0 .18.46.63.63 0 0 0 .46.18.6.6 0 0 0 .46-.18.63.63 0 0 0 .18-.46v-8.91a.63.63 0 0 0-.2-.47.68.68 0 0 0-.9 0zM109.67 23a5.09 5.09 0 0 0-1.52-.88 4.87 4.87 0 0 0-1.8-.32 5.05 5.05 0 0 0-4.3 2.36 4.72 4.72 0 0 0-.48.92 6.37 6.37 0 0 0-.26 1 4.57 4.57 0 0 0-.07.83 5 5 0 0 0 .41 2 5.07 5.07 0 0 0 1.09 1.63 5.37 5.37 0 0 0 1.62 1.09 5 5 0 0 0 2 .4 5.06 5.06 0 0 0 4.08-2 5.07 5.07 0 0 0 .58-1 .67.67 0 0 0 0-.48.65.65 0 0 0-.34-.37.58.58 0 0 0-.83.32 4.54 4.54 0 0 1-.46.75 3.81 3.81 0 0 1-1.32 1.11 3.82 3.82 0 0 1-4.43-.74 3.78 3.78 0 0 1-.83-1.21 3.71 3.71 0 0 1-.3-1.49v-.62a3.41 3.41 0 0 1 .55-1.44 3.87 3.87 0 0 1 1.39-1.31 4 4 0 0 1 3.1-.25 3.71 3.71 0 0 1 1.91 1.45 2.91 2.91 0 0 1 .42.8h-5.6a.68.68 0 0 0-.46.18.65.65 0 0 0-.19.47.59.59 0 0 0 .19.45.61.61 0 0 0 .46.19h6.54a.76.76 0 0 0 .42-.25.6.6 0 0 0 .1-.49 5 5 0 0 0-.6-1.72 5.54 5.54 0 0 0-1.07-1.38zM118.36 26a3.28 3.28 0 0 0-2.06-.71 1.11 1.11 0 0 1-1.08-1.09 1.06 1.06 0 0 1 .31-.78 1.11 1.11 0 0 1 1.55 0 1.06 1.06 0 0 1 .31.78.64.64 0 0 0 .18.46.7.7 0 0 0 .93 0 .68.68 0 0 0 .18-.46 2.48 2.48 0 0 0-.18-.93 2.39 2.39 0 0 0-.52-.76 2.45 2.45 0 0 0-.76-.5 2.32 2.32 0 0 0-.92-.18 2.34 2.34 0 0 0-2.3 2.35 2.3 2.3 0 0 0 .67 1.66 2.24 2.24 0 0 0 1.66.69 2.05 2.05 0 0 1 1.3.45 2.12 2.12 0 0 1 .66 2.48 2.28 2.28 0 0 1-.46.67 2.49 2.49 0 0 1-.69.45 2 2 0 0 1-.81.17 2 2 0 0 1-1.2-.38.63.63 0 0 0-.9.19.62.62 0 0 0 .19.88 3.36 3.36 0 0 0 1.91.59 3.47 3.47 0 0 0 1.33-.26 3.26 3.26 0 0 0 1.07-.72 3.3 3.3 0 0 0 .67-1.05 3.24 3.24 0 0 0 .26-1.32 3.33 3.33 0 0 0-.34-1.5 3.28 3.28 0 0 0-.96-1.18zM114.26 29.21a1.84 1.84 0 0 1-.08-.56 2.08 2.08 0 0 1 .36-1.18.56.56 0 0 0 .09-.47.77.77 0 0 0-.25-.41.61.61 0 0 0-.88.18 3.31 3.31 0 0 0-.57 1.89v.6a1.73 1.73 0 0 0 .08.33.61.61 0 0 0 .6.45.4.4 0 0 0 .22-.05.63.63 0 0 0 .43-.78zM126.8 26a3.3 3.3 0 0 0-2.06-.71 1.11 1.11 0 0 1-1.09-1.09 1.06 1.06 0 0 1 .32-.78 1.1 1.1 0 0 1 1.54 0 1 1 0 0 1 .32.78.6.6 0 0 0 .18.46.69.69 0 0 0 .92 0 .63.63 0 0 0 .18-.46 2.48 2.48 0 0 0-.18-.93 2.24 2.24 0 0 0-.52-.76 2.4 2.4 0 0 0-.75-.5 2.32 2.32 0 0 0-.92-.18 2.38 2.38 0 0 0-1.68 4 2.24 2.24 0 0 0 1.66.69 2.1 2.1 0 0 1 2 2.93 2 2 0 0 1-.46.67 2.3 2.3 0 0 1-.68.45 2.08 2.08 0 0 1-2-.21.64.64 0 0 0-.71 1.07 3.44 3.44 0 0 0 3.24.33 3.3 3.3 0 0 0 1.08-.72 3.46 3.46 0 0 0 .72-1.08 3.41 3.41 0 0 0 .26-1.32 3.47 3.47 0 0 0-.34-1.5 3.39 3.39 0 0 0-1.03-1.14zM122.7 29.21a1.58 1.58 0 0 1-.08-.56 2.08 2.08 0 0 1 .36-1.18.59.59 0 0 0 .08-.47.71.71 0 0 0-.25-.41.61.61 0 0 0-.88.18 3.31 3.31 0 0 0-.57 1.89v.39a1.49 1.49 0 0 0 0 .21 3.09 3.09 0 0 0 .08.33.63.63 0 0 0 .61.45.42.42 0 0 0 .22-.05.63.63 0 0 0 .43-.78zM139.6 24.92a5.34 5.34 0 0 0-1.1-1.62 5.12 5.12 0 0 0-6.12-.84.69.69 0 0 0-.23.86.67.67 0 0 0 .39.31.61.61 0 0 0 .49-.07 3.82 3.82 0 0 1 4.56.65 3.85 3.85 0 0 1 .82 1.22 3.85 3.85 0 0 1 0 3 4 4 0 0 1-.82 1.22 4 4 0 0 1-1.21.82 3.88 3.88 0 0 1-3 0 4 4 0 0 1-1.21-.83 3.6 3.6 0 0 1-.82-1.21 3.71 3.71 0 0 1-.31-1.49 3.67 3.67 0 0 1 .48-1.85.59.59 0 0 0 .06-.5.56.56 0 0 0-.31-.37.63.63 0 0 0-.5-.06.58.58 0 0 0-.37.31 5.11 5.11 0 0 0-.64 2.47 5 5 0 0 0 .41 2 5.06 5.06 0 0 0 2.71 2.72 5.18 5.18 0 0 0 4 0 5.19 5.19 0 0 0 1.62-1.09 5.26 5.26 0 0 0 1.1-1.63 5.12 5.12 0 0 0 .4-2 5.21 5.21 0 0 0-.4-2.02z"/></g></svg>