<svg xmlns="http://www.w3.org/2000/svg" viewBox="0 0 27.56 27.56" width="27.56" height="27.56"><path d="M27.05 10.81a1.78 1.78 0 0 0-1.24-.51h-1c-.11-.36-.25-.69-.35-1s-.28-.63-.42-.91l.7-.71a1.74 1.74 0 0 0 0-2.48l-2.43-2.38a1.79 1.79 0 0 0-2.49 0l-.7.7c-.29-.15-.59-.29-.91-.42s-.67-.26-1-.35v-1a1.75 1.75 0 0 0-.5-1.24 1.76 1.76 0 0 0-1.21-.51h-3.45a1.72 1.72 0 0 0-1.74 1.75v1a9.69 9.69 0 0 0-1 .35c-.32.13-.62.27-.91.42l-.71-.7a1.78 1.78 0 0 0-2.48 0l-2.39 2.43a1.74 1.74 0 0 0 0 2.48l.7.71a9.59 9.59 0 0 0-.42.91c-.15.36-.26.66-.35 1h-1a1.76 1.76 0 0 0-1.24.51 1.74 1.74 0 0 0-.51 1.19v3.45a1.76 1.76 0 0 0 .51 1.25 1.75 1.75 0 0 0 1.24.5h1c.09.29.2.59.35 1s.27.62.42.91l-.7.7a1.75 1.75 0 0 0 0 2.49l2.43 2.43a1.78 1.78 0 0 0 2.48 0l.71-.7c.29.15.59.28.91.42s.59.24 1 .35v1a1.75 1.75 0 0 0 .5 1.24 1.78 1.78 0 0 0 1.24.51h3.41a1.81 1.81 0 0 0 1.25-.51 1.77 1.77 0 0 0 .5-1.24v-1c.37-.11.7-.25 1-.35s.62-.27.91-.42l.7.7a1.79 1.79 0 0 0 2.49 0l2.43-2.43a1.75 1.75 0 0 0 0-2.49l-.7-.7c.14-.29.28-.59.42-.91s.24-.59.35-1h1a1.77 1.77 0 0 0 1.24-.5 1.81 1.81 0 0 0 .51-1.25v-3.45a1.78 1.78 0 0 0-.55-1.24zm-8.13 12.06a11.75 11.75 0 0 1-1.13.56c-.36.14-.8.3-1.24.43a.54.54 0 0 0-.42.53v1.42a.65.65 0 0 1-.18.44.6.6 0 0 1-.45.19h-3.45a.62.62 0 0 1-.44-.18.69.69 0 0 1-.18-.45v-1.42a.54.54 0 0 0-.44-.54 9.83 9.83 0 0 1-1.21-.42 10.58 10.58 0 0 1-1.12-.54h-.05a.58.58 0 0 0-.28-.07.52.52 0 0 0-.41.19l-1 1a.65.65 0 0 1-.92-.01l-2.39-2.49a.62.62 0 0 1 0-.89l1-1a.54.54 0 0 0 .18-.54.68.68 0 0 0 0-.13v-.06a9.8 9.8 0 0 1-.56-1.13 13.05 13.05 0 0 1-.43-1.25.57.57 0 0 0-.54-.41h-1.51a.69.69 0 0 1-.45-.1.64.64 0 0 1-.19-.45v-3.5a.67.67 0 0 1 .18-.44.74.74 0 0 1 .46-.18h1.41a.55.55 0 0 0 .55-.43c.12-.44.28-.86.41-1.21s.36-.78.55-1.12v-.05a.55.55 0 0 0-.12-.69l-1-1a.64.64 0 0 1-.19-.45.65.65 0 0 1 .25-.48l2.39-2.39a.65.65 0 0 1 .9 0l1 1a.54.54 0 0 0 .54.18h.19a10 10 0 0 1 1.13-.57c.37-.14.8-.29 1.26-.42a.58.58 0 0 0 .4-.54v-1.51a.69.69 0 0 1 .18-.45.63.63 0 0 1 .44-.19h3.46a.63.63 0 0 1 .44.18.7.7 0 0 1 .19.46v1.41a.54.54 0 0 0 .44.55c.44.12.86.28 1.21.41s.77.36 1.11.54h.06a.55.55 0 0 0 .69-.12l1-1a.64.64 0 0 1 .89 0l2.47 2.46a.65.65 0 0 1 0 .9l-1 1a.54.54 0 0 0-.18.54.4.4 0 0 0 0 .13v.06a11.78 11.78 0 0 1 .56 1.13c.15.38.3.8.43 1.24a.56.56 0 0 0 .53.42h1.42a.74.74 0 0 1 .45.17.66.66 0 0 1 .18.45v3.46a.59.59 0 0 1-.18.44.65.65 0 0 1-.45.19h-1.37a.54.54 0 0 0-.54.44c-.12.44-.28.86-.41 1.21a11.48 11.48 0 0 1-.55 1.11v.06a.55.55 0 0 0 .12.69l1 1a.63.63 0 0 1 .18.45.62.62 0 0 1-.18.44l-2.5 2.47a.64.64 0 0 1-.89 0l-1-1a.54.54 0 0 0-.54-.18.22.22 0 0 0-.13 0zM19.07 8.49a7.46 7.46 0 0 0-10.58 0 7.48 7.48 0 0 0 5.29 12.77 7.48 7.48 0 0 0 5.29-12.77zm1.07 5.29a6.38 6.38 0 0 1-6.36 6.36 6.36 6.36 0 0 1-4.5-10.86 6.36 6.36 0 0 1 9 0 6.26 6.26 0 0 1 1.86 4.5z"/></svg>