<svg xmlns="http://www.w3.org/2000/svg" viewBox="0 0 27.56 27.56" width="27.56" height="27.56"><path d="M23.83.25a.88.88 0 0 0-1.22 0l-13.61 13.64a.81.81 0 0 0-.21.34l-1.79 5.26a.86.86 0 0 0 .53 1.1.89.89 0 0 0 .56 0l5.26-1.8a.9.9 0 0 0 .34-.2l13.62-13.65a.88.88 0 0 0 0-1.22zm-11.24 17l-3.4 1.16 1.16-3.41 10.44-10.48 2.21 2.25zm11.67-11.7l-2.26-2.25 1.22-1.22 2.25 2.25zM5.64 1.73h8.14a.87.87 0 0 0 0-1.73h-8.14a5.65 5.65 0 0 0-5.64 5.64v16.28a5.65 5.65 0 0 0 5.64 5.64h16.28a5.65 5.65 0 0 0 5.64-5.64v-8.14a.87.87 0 0 0-1.73 0v8.14a3.92 3.92 0 0 1-3.91 3.92h-16.28a3.93 3.93 0 0 1-3.92-3.92v-16.28a3.92 3.92 0 0 1 3.92-3.91z"/></svg>