<svg xmlns="http://www.w3.org/2000/svg" viewBox="0 0 32 27.56" width="32" height="27.56"><path d="M18.28 14.91a2.49 2.49 0 0 1 .25 1.09 2.53 2.53 0 1 1-2.53-2.53 2.49 2.49 0 0 1 1.09.25l4-4a.84.84 0 0 1 1.19 1.19zm-1.68.5a.83.83 0 0 0-.59-.24.84.84 0 1 0 .84.84.83.83 0 0 0-.24-.59zm-14.89-.25h2.5a.84.84 0 0 1 0 1.68h-2.5a14.24 14.24 0 0 0 3.59 8.67l1.77-1.77a.84.84 0 0 1 1.19 1.19l-2.38 2.38a.84.84 0 0 1-1.19 0 16 16 0 1 1 22.62 0 .84.84 0 0 1-1.19 0l-2.38-2.38a.84.84 0 0 1 1.19-1.19l1.77 1.77a14.24 14.24 0 0 0 3.59-8.67h-2.5a.84.84 0 0 1 0-1.68h2.5a14.24 14.24 0 0 0-3.59-8.67l-1.77 1.77a.84.84 0 0 1-1.19-1.19l1.77-1.77a14.24 14.24 0 0 0-8.67-3.59v2.5a.84.84 0 0 1-1.68 0v-2.5a14.24 14.24 0 0 0-8.67 3.59l1.77 1.77a.84.84 0 0 1-1.19 1.19l-1.77-1.77a14.24 14.24 0 0 0-3.59 8.67z"/></svg>