<svg xmlns="http://www.w3.org/2000/svg" viewBox="0 0 27.54 27.54" width="27.54" height="27.54"><path d="M25.45 0a2.1 2.1 0 0 1 2.09 2.09v23.36a2.1 2.1 0 0 1-2.09 2.09h-23.36a2.1 2.1 0 0 1-2.09-2.09v-23.36a2.1 2.1 0 0 1 2.09-2.09zm0 1.25h-23.36a.85.85 0 0 0-.84.84v7.74l4.07-3.31a.58.58 0 0 1 .4-.13.64.64 0 0 1 .51.26l9 12.86 5.68-4.18a.63.63 0 0 1 .83.08l4.54 5v-18.32a.85.85 0 0 0-.83-.84zm-19.87 6.67l-4.33 3.52v14a.84.84 0 0 0 .84.84h23.36a.84.84 0 0 0 .84-.84v-3.18l-5.09-5.58-5.74 4.22a.62.62 0 0 1-.87-.14l-9-12.84zM20.28 3.07a3.76 3.76 0 1 1-3.76 3.76 3.77 3.77 0 0 1 3.76-3.76zm0 1.25a2.51 2.51 0 1 0 2.5 2.51 2.5 2.5 0 0 0-2.5-2.51z"/></svg>