<svg xmlns="http://www.w3.org/2000/svg" viewBox="0 0 29.33 25.98" width="29.33" height="25.98"><path d="M29.33 6.52v-.09a2.4 2.4 0 0 0-.33-1.21 2.39 2.39 0 0 0-.46-.49l-.11-.08a2 2 0 0 0-.4-.23l-.12-.07h-.13a2 2 0 0 0-.47-.09h-12.65l-2-2.32-1-1.17a2.08 2.08 0 0 0-1.66-.77h-7.27a3.24 3.24 0 0 0-1.28.15 2.25 2.25 0 0 0-1.45 2.11v21.490000000000002a2.39 2.39 0 0 0 .15.76 2.12 2.12 0 0 0 .33.56 2.35 2.35 0 0 0 .46.43h.05a2.19 2.19 0 0 0 .48.25h.12000000000000001a1.9 1.9 0 0 0 .61.25h24.9a2.85 2.85 0 0 0 .41 0h.11l.29-.09.1-.05a1.64 1.64 0 0 0 .29-.16h.05a2.41 2.41 0 0 0 .58-.57l.07-.13a1.87 1.87 0 0 0 .17-.31v-.06l.06-.14a.86.86 0 0 0 0-.17.74.74 0 0 0 0-.14 1.94 1.94 0 0 0 0-.24.77.77 0 0 0 0-.15v-16.23c.1-.34.11-.69.1-1.04zm-1.33 17.65l-.11.16-.08.09-.1.09-.13.07h-25.77l-.1-.06-.19-.19v-.07a1.34 1.34 0 0 1-.06-.12v-.2a1.34 1.34 0 0 0 0-.2v-17.28a.48.48 0 0 0 0-.17v-.13a1 1 0 0 0 0-.1.39.39 0 0 1 .06-.11l.16-.14.11-.07.11-.06c.07 0 .16 0 .23-.06h25.16l.19.06.15.08h.06l.09.09.22.15v.06a.76.76 0 0 0 0 .11v.07a.22.22 0 0 1 0 .08v17.56a.64.64 0 0 1 0 .07v.18zm-26.13.49zm-.43-18.8v-.06zm.38-.32zm26.18 18.62v-.06.06zm-26.73-21.64v-.41000000000000003a1.11 1.11 0 0 0 .07-.26l.06-.11v-.06a.46.46 0 0 1 .07-.07l.08-.09.24-.14h8.46a.27.27 0 0 1 .12 0l.14.07.13.14.13.14 1.88 2.17.35.3h-10.86a2.16 2.16 0 0 0-.87.23v-1.91z"/></svg>