<svg xmlns="http://www.w3.org/2000/svg" viewBox="0 0 27.55 27.55" width="27.55" height="27.55"><path d="M24.32 0h-8.52a3.32 3.32 0 0 0-2.38 1l-12.42 12.42a3.37 3.37 0 0 0 0 4.77l8.37 8.38a3.39 3.39 0 0 0 2.39 1 3.35 3.35 0 0 0 2.38-1l12.42-12.43a3.38 3.38 0 0 0 1-2.41v-8.51a3.23 3.23 0 0 0-3.24-3.22zm1.37 13.25l-12.43 12.44a2.12 2.12 0 0 1-3 0l-8.4-8.38a2.14 2.14 0 0 1 0-3l12.43-12.45a2.15 2.15 0 0 1 1.53-.62h8.5a2 2 0 0 1 2 2v8.51a2.13 2.13 0 0 1-.63 1.51zM20.9 3.7a2.77 2.77 0 1 0 2.77 2.77 2.77 2.77 0 0 0-2.77-2.77zm0 4.3a1.54 1.54 0 1 1 1.54-1.53 1.54 1.54 0 0 1-1.54 1.53z"/></svg>